<?xml version="1.0" encoding="UTF-8"?>
<svg fill="none" version="1.1" viewBox="0 0 40 40" xmlns="http://www.w3.org/2000/svg">
  <g transform="matrix(1,0,0,-1,0,80)">
    <g transform="matrix(1,0,0,-1,0,160)">
      <path
        d="m9.4332 86.067-1.7864-1.782c-4.6571 3.6624-7.6468 9.3405-7.6468 15.715 0 5.3448 2.1018 10.2 5.5258 13.788l1.7728-1.7684c-2.9708-3.1349-4.7924-7.365-4.7924-12.019 0-5.6848 2.7174-10.737 6.927-13.933zm2.7405 29.575-1.8541 1.8496c2.8814 1.5984 6.1991 2.5088 9.7299 2.5088 10.396 0 18.945-7.8934 19.95-18h-2.5205c-0.9949 8.7231-8.4191 15.5-17.43 15.5-2.8321 0-5.5075-0.6695-7.8758-1.8584zm19.256-28.96 1.6169-1.9102c-3.5-2.9753-8.0385-4.7712-12.997-4.7712-1.6482 0-3.2499 0.19838-4.7825 0.57251l2.1313 2.126c0.8646-0.13074 1.75-0.19853 2.6512-0.19853 4.3427 0 8.3169 1.574 11.38 4.1814z"
        fill="#30D34B" fill-rule="evenodd" />
      <path
        d="m20.05 86.045v-0.045285c-6.0798 0-11.257 3.8564-13.207 9.2507-1.9631 5.3748-0.47868 11.63 4.1686 15.519 5.4162 4.5336 13.258 4.2889 18.375-0.2846l-0.0192-0.0161c2.4219-2.1464 4.0939-5.1163 4.5748-8.4695h-5.0945q-0.1527 0.6663-0.4092 1.3128-0.6879 1.7331-2.0091 3.0512-1.3213 1.318-3.0587 2.0041-1.6001 0.6319-3.3211 0.6319-1.7209 0-3.321-0.6319-1.7374-0.6861-3.0587-2.0041-1.3213-1.3181-2.0091-3.0512-0.63347-1.5961-0.63346-3.3128 0-1.5702 0.52996-3.0395 0.54154-1.4842 1.5643-2.7 1.1062-1.3151 2.62-2.1316 1.6437-0.8866 3.5051-1.049 1.8615-0.16246 3.6345 0.42595 1.633 0.54193 2.9513 1.6454l3.2219-3.8302c-2.6269-2.1988-5.8244-3.2736-9.0047-3.2757z"
        fill="#1E9F33" fill-rule="evenodd" />
    </g>
  </g>
</svg>